<svg xmlns="http://www.w3.org/2000/svg" width="80" height="81" viewBox="0 0 80 81"><defs><style>.a{fill:#ee4545;}.b{fill:#fff;}</style></defs><g transform="translate(-0.252 0.134)"><ellipse class="a" cx="40" cy="40.5" rx="40" ry="40.5" transform="translate(0.252 -0.134)"/><path class="b" d="M27.593,32.908,17,22.32,6.416,32.908A3.758,3.758,0,1,1,1.1,27.593L11.689,17,1.1,6.416A3.758,3.758,0,0,1,6.416,1.1L17,11.69,27.593,1.1a3.758,3.758,0,1,1,5.315,5.315L22.319,17,32.908,27.593a3.758,3.758,0,1,1-5.315,5.315Zm0,0" transform="translate(23.244 23.857)"/></g></svg>