<svg xmlns="http://www.w3.org/2000/svg" width="53.303" height="32.977" viewBox="0 0 53.303 32.977"><defs><style>.a{fill:#585858;fill-rule:evenodd;}</style></defs><path class="a" d="M141.412,91.669V84.6H138.5v7.069h2.912Z" transform="translate(-96.483 -58.935)"/><path class="a" d="M76.271,89.035V85H73.449v3.094a5.021,5.021,0,0,1-.091,1.365,1.535,1.535,0,0,1-1.578.94c-.971,0-1.426-.364-1.608-.971a4.6,4.6,0,0,1-.091-.637,6.319,6.319,0,0,1,0-.758V85H67.2v4.035a2.644,2.644,0,0,0,.819,2.063,5.222,5.222,0,0,0,3.64,1.092,5.128,5.128,0,0,0,3.792-1.122,2.5,2.5,0,0,0,.819-2.033Z" transform="translate(-46.813 -59.213)"/><path class="a" d="M29.844,82.249a1.612,1.612,0,0,0-.425-.03H26.173c-.152,0-.334.03-.425.03a3.381,3.381,0,0,0,.273-.3l1.456-2.4c.182-.334.273-.546.334-.637a3.211,3.211,0,0,0,.334.637l1.487,2.427a.661.661,0,0,0,.212.273Zm5.4,3.428L28.782,76h-3.61l.94,1.122c.03.03.061.03.091.061-.03.03-.061.03-.091.061L20.5,85.678h3.276l.88-1.456a.629.629,0,0,0,.061-.182,1.711,1.711,0,0,0,.212.03h5.825a1.073,1.073,0,0,0,.182-.03.33.33,0,0,0,.03.152l.91,1.487h3.367Z" transform="translate(-14.281 -52.944)"/><path class="a" d="M110.543,82.037a4.909,4.909,0,0,0-1.335-2.973L106.781,76h-3.367l1.911,2.154a6.537,6.537,0,0,0,.728.667,3.1,3.1,0,0,0-1.517-.364,6.756,6.756,0,0,0-3.246.789,3.224,3.224,0,0,0-1.79,2.882,3.362,3.362,0,0,0,1.031,2.366c1.3,1.3,3.64,1.426,4.49,1.426a6.989,6.989,0,0,0,4.4-1.3,3.368,3.368,0,0,0,1.122-2.579Zm-2.821.091a1.839,1.839,0,0,1-1.092,1.608,3.41,3.41,0,0,1-1.608.334,4,4,0,0,1-1.638-.364,1.831,1.831,0,0,1-1.062-1.547,1.984,1.984,0,0,1,1.3-1.7,3.14,3.14,0,0,1,1.365-.273,4.143,4.143,0,0,1,1.426.243,1.992,1.992,0,0,1,1.3,1.7Z" transform="translate(-69.314 -52.944)"/><path class="a" d="M43.989,0a9.287,9.287,0,0,0-5.764,2,9.439,9.439,0,0,0-5.794-2,9.287,9.287,0,0,0-5.764,2,9.439,9.439,0,0,0-5.794-2,9.287,9.287,0,0,0-5.764,2A9.439,9.439,0,0,0,9.314,0a9.314,9.314,0,1,0,5.764,16.625,9.385,9.385,0,0,0,11.589,0,9.342,9.342,0,0,0,11.559,0A9.312,9.312,0,1,0,43.989,0ZM13.561,15.108A7.188,7.188,0,1,1,9.314,2.124a7.125,7.125,0,0,1,4.247,1.4,9.193,9.193,0,0,0-2,5.794,9.373,9.373,0,0,0,2,5.794Zm1.547-1.517a7.254,7.254,0,0,1,0-8.555,7.254,7.254,0,0,1,0,8.555Zm10.011,1.517a7.161,7.161,0,0,1-8.494,0,9.385,9.385,0,0,0,0-11.589,7.161,7.161,0,0,1,8.494,0,9.193,9.193,0,0,0-2,5.794,9.373,9.373,0,0,0,2,5.794Zm1.547-1.517a7.254,7.254,0,0,1,0-8.555,7.254,7.254,0,0,1,0,8.555Zm10.011,1.517a7.161,7.161,0,0,1-8.494,0,9.385,9.385,0,0,0,0-11.589,7.161,7.161,0,0,1,8.494,0,9.193,9.193,0,0,0-2,5.794,9.373,9.373,0,0,0,2,5.794Zm1.547-1.517a7.254,7.254,0,0,1,0-8.555,7.254,7.254,0,0,1,0,8.555ZM43.989,16.5a7.125,7.125,0,0,1-4.247-1.4,9.385,9.385,0,0,0,0-11.589A7.188,7.188,0,1,1,43.989,16.5Z"/></svg>