<svg xmlns="http://www.w3.org/2000/svg" width="92.85" height="28.981" viewBox="0 0 92.85 28.981"><defs><style>.a{fill:#585858;}</style></defs><g transform="translate(21.799 20.831)"><path class="a" d="M45.3,47.406h-.662v-5.2H42.8V41.6h4.329v.611H45.3Z" transform="translate(-42.8 -41.243)"/><path class="a" d="M56.324,46.641a2.475,2.475,0,0,1-.56,1.681,1.884,1.884,0,0,1-1.477.611,2.153,2.153,0,0,1-1.019-.255,2.069,2.069,0,0,1-.713-.764,3.077,3.077,0,0,1-.255-1.222,2.458,2.458,0,0,1,.509-1.681,1.884,1.884,0,0,1,1.477-.611,1.777,1.777,0,0,1,1.426.611A1.917,1.917,0,0,1,56.324,46.641Zm-3.311,0a1.9,1.9,0,0,0,.357,1.273,1.183,1.183,0,0,0,.968.458,1.119,1.119,0,0,0,.968-.458,2.226,2.226,0,0,0,.357-1.273,1.9,1.9,0,0,0-.357-1.273,1.084,1.084,0,0,0-.968-.407,1.226,1.226,0,0,0-.968.407A2.108,2.108,0,0,0,53.013,46.641Z" transform="translate(-47.461 -42.617)"/><path class="a" d="M65.575,44.4v.407l-.815.1a2.214,2.214,0,0,1,.2.357,1.507,1.507,0,0,1,.1.509,1.282,1.282,0,0,1-.458,1.019,1.719,1.719,0,0,1-1.171.407.755.755,0,0,1-.357-.051.618.618,0,0,0-.407.56.28.28,0,0,0,.153.255,1.1,1.1,0,0,0,.509.1H64.1a1.671,1.671,0,0,1,1.07.306,1.049,1.049,0,0,1,.357.866,1.353,1.353,0,0,1-.56,1.121,3.172,3.172,0,0,1-1.681.357,2.426,2.426,0,0,1-1.324-.306A1.028,1.028,0,0,1,61.5,49.5a.968.968,0,0,1,.255-.662,1.392,1.392,0,0,1,.713-.407.614.614,0,0,1-.255-.255.736.736,0,0,1-.1-.357.959.959,0,0,1,.1-.407,1.453,1.453,0,0,1,.407-.357,1.592,1.592,0,0,1-.56-.458,1.228,1.228,0,0,1-.2-.764,1.586,1.586,0,0,1,.407-1.121,1.858,1.858,0,0,1,1.222-.407,2.556,2.556,0,0,1,.611.1ZM62.111,49.5a.639.639,0,0,0,.306.56,1.8,1.8,0,0,0,.866.2A2.431,2.431,0,0,0,64.505,50a.8.8,0,0,0,.407-.662.536.536,0,0,0-.2-.509,1.52,1.52,0,0,0-.815-.153h-.815a1.078,1.078,0,0,0-.713.2A.686.686,0,0,0,62.111,49.5Zm.357-3.718a1.1,1.1,0,0,0,.255.713,1.008,1.008,0,0,0,.713.255c.662,0,.968-.306.968-.917a.842.842,0,0,0-.968-.968,1.008,1.008,0,0,0-.713.255C62.519,45.217,62.468,45.471,62.468,45.777Z" transform="translate(-51.976 -42.568)"/><path class="a" d="M72.788,48.833a1.922,1.922,0,0,1-1.528-.611,2.338,2.338,0,0,1-.56-1.63,2.458,2.458,0,0,1,.509-1.681,1.744,1.744,0,0,1,1.375-.611,1.581,1.581,0,0,1,1.273.56,2.086,2.086,0,0,1,.458,1.426v.407H71.311a1.629,1.629,0,0,0,.407,1.171,1.422,1.422,0,0,0,1.019.407,3.362,3.362,0,0,0,1.375-.306v.611a4.731,4.731,0,0,1-.662.2A2.49,2.49,0,0,1,72.788,48.833Zm-.153-3.973a.95.95,0,0,0-.815.357,1.836,1.836,0,0,0-.357.968h2.292a1.812,1.812,0,0,0-.255-.968A1.329,1.329,0,0,0,72.635,44.86Z" transform="translate(-56.49 -42.568)"/><path class="a" d="M81.135,47.439a.994.994,0,0,0,.357-.051,2.205,2.205,0,0,0,.255-.051v.509c-.051.051-.153.051-.306.1-.153,0-.255.051-.357.051-.866,0-1.273-.458-1.273-1.324v-2.6H79.2v-.306l.611-.255.255-.917h.357v1.019H81.7v.509H80.422v2.547a.812.812,0,0,0,.2.611C80.779,47.439,80.881,47.439,81.135,47.439Z" transform="translate(-60.661 -41.734)"/><path class="a" d="M88.805,47.063v-2.8a1.3,1.3,0,0,0-.255-.815,1.054,1.054,0,0,0-.764-.255,1.245,1.245,0,0,0-1.019.357,1.958,1.958,0,0,0-.306,1.222v2.292H85.8V40.9h.662v1.884a1.91,1.91,0,0,1-.051.56h.051a1.816,1.816,0,0,1,.56-.509,1.5,1.5,0,0,1,.815-.2,1.617,1.617,0,0,1,1.171.357,1.677,1.677,0,0,1,.407,1.222v2.852Z" transform="translate(-63.899 -40.9)"/><path class="a" d="M97.188,48.833a1.922,1.922,0,0,1-1.528-.611,2.338,2.338,0,0,1-.56-1.63,2.458,2.458,0,0,1,.509-1.681,1.744,1.744,0,0,1,1.375-.611,1.581,1.581,0,0,1,1.273.56,2.086,2.086,0,0,1,.458,1.426v.407H95.711a1.629,1.629,0,0,0,.407,1.171,1.422,1.422,0,0,0,1.019.407,3.362,3.362,0,0,0,1.375-.306v.611a4.732,4.732,0,0,1-.662.2A2.49,2.49,0,0,1,97.188,48.833Zm-.153-3.973a.95.95,0,0,0-.815.357,1.836,1.836,0,0,0-.357.968h2.292a1.812,1.812,0,0,0-.255-.968A1.329,1.329,0,0,0,97.035,44.86Z" transform="translate(-68.462 -42.568)"/><path class="a" d="M106.586,44.4a1.57,1.57,0,0,1,.509.051l-.1.611a1.754,1.754,0,0,0-.458-.051,1.275,1.275,0,0,0-.917.407,1.513,1.513,0,0,0-.357,1.07V48.78H104.6V44.451h.56l.051.815h.051a1.839,1.839,0,0,1,.56-.662A1.227,1.227,0,0,1,106.586,44.4Z" transform="translate(-73.124 -42.617)"/><path class="a" d="M115.1,41.758a.736.736,0,0,1,.1-.357.369.369,0,0,1,.509,0c.1.051.1.2.1.306a.736.736,0,0,1-.1.357c-.1.051-.153.1-.255.1a.389.389,0,0,1-.255-.1A.431.431,0,0,1,115.1,41.758Zm.713,5.5h-.662V42.93h.662Z" transform="translate(-78.276 -41.096)"/><path class="a" d="M121.856,47.56a1.028,1.028,0,0,1-.458.917,2.24,2.24,0,0,1-1.273.306,3.051,3.051,0,0,1-1.324-.255v-.611a3.536,3.536,0,0,0,.662.255,3.439,3.439,0,0,0,.713.1,1.786,1.786,0,0,0,.815-.153c.2-.1.255-.255.255-.509a.622.622,0,0,0-.2-.458,4.718,4.718,0,0,0-.866-.407,4.717,4.717,0,0,1-.866-.407.906.906,0,0,1-.357-.407,1.507,1.507,0,0,1-.1-.509.99.99,0,0,1,.407-.815,2,2,0,0,1,1.171-.306,3.362,3.362,0,0,1,1.375.306l-.255.56a2.712,2.712,0,0,0-1.171-.255,1.349,1.349,0,0,0-.713.153.519.519,0,0,0-.255.407.724.724,0,0,0,.1.306c.051.1.153.153.306.255a7.673,7.673,0,0,0,.764.306,3.358,3.358,0,0,1,1.07.56A1.274,1.274,0,0,1,121.856,47.56Z" transform="translate(-80.091 -42.568)"/><path class="a" d="M133.037,48.882a1.7,1.7,0,0,1-.764-.153,1.756,1.756,0,0,1-.611-.458h-.051a3.607,3.607,0,0,1,.051.713v1.783H131V44.451h.56l.1.611h.051a1.189,1.189,0,0,1,.611-.509,1.861,1.861,0,0,1,.764-.153,1.576,1.576,0,0,1,1.324.611,3.311,3.311,0,0,1,0,3.362A2.07,2.07,0,0,1,133.037,48.882Zm-.1-3.922a1.134,1.134,0,0,0-.968.357,1.892,1.892,0,0,0-.306,1.171v.153a2.2,2.2,0,0,0,.306,1.324,1.155,1.155,0,0,0,.968.407,1,1,0,0,0,.866-.458,2.806,2.806,0,0,0,0-2.547A.861.861,0,0,0,132.935,44.96Z" transform="translate(-86.078 -42.617)"/><path class="a" d="M144.324,46.641a2.475,2.475,0,0,1-.56,1.681,1.884,1.884,0,0,1-1.477.611,2.153,2.153,0,0,1-1.019-.255,2.068,2.068,0,0,1-.713-.764,3.078,3.078,0,0,1-.255-1.222,2.458,2.458,0,0,1,.509-1.681,1.884,1.884,0,0,1,1.477-.611,1.777,1.777,0,0,1,1.426.611A2.076,2.076,0,0,1,144.324,46.641Zm-3.311,0a1.9,1.9,0,0,0,.357,1.273,1.183,1.183,0,0,0,.968.458,1.119,1.119,0,0,0,.968-.458,2.226,2.226,0,0,0,.357-1.273,1.9,1.9,0,0,0-.357-1.273,1.084,1.084,0,0,0-.968-.407,1.226,1.226,0,0,0-.968.407A2.108,2.108,0,0,0,141.013,46.641Z" transform="translate(-90.641 -42.617)"/><path class="a" d="M153.376,48.829l-.815-2.547q-.076-.229-.306-1.07H152.2c-.1.458-.2.815-.255,1.07l-.815,2.547h-.764L149.2,44.5h.713c.306,1.07.509,1.935.662,2.5a6.157,6.157,0,0,1,.255,1.171h.051a3.134,3.134,0,0,1,.153-.56,4.132,4.132,0,0,1,.153-.56l.815-2.5h.713l.764,2.5a6.683,6.683,0,0,1,.306,1.171h.051a2.584,2.584,0,0,1,.1-.458c.051-.2.306-1.273.815-3.209h.662l-1.222,4.278Z" transform="translate(-95.008 -42.666)"/><path class="a" d="M164.488,48.833a1.922,1.922,0,0,1-1.528-.611,2.338,2.338,0,0,1-.56-1.63,2.458,2.458,0,0,1,.509-1.681,1.744,1.744,0,0,1,1.375-.611,1.581,1.581,0,0,1,1.273.56,2.086,2.086,0,0,1,.458,1.426v.407h-3.005a1.629,1.629,0,0,0,.407,1.171,1.422,1.422,0,0,0,1.019.407,3.362,3.362,0,0,0,1.375-.306v.611a4.732,4.732,0,0,1-.662.2A2.691,2.691,0,0,1,164.488,48.833Zm-.2-3.973a.95.95,0,0,0-.815.357,1.836,1.836,0,0,0-.357.968H165.4a1.812,1.812,0,0,0-.255-.968A1.329,1.329,0,0,0,164.285,44.86Z" transform="translate(-101.485 -42.568)"/><path class="a" d="M173.786,44.4a1.57,1.57,0,0,1,.509.051l-.1.611a1.754,1.754,0,0,0-.458-.051,1.275,1.275,0,0,0-.917.407,1.513,1.513,0,0,0-.357,1.07V48.78H171.8V44.451h.56l.051.815h.051a1.839,1.839,0,0,1,.56-.662A1.437,1.437,0,0,1,173.786,44.4Z" transform="translate(-106.097 -42.617)"/><path class="a" d="M178.1,51.66a.96.96,0,0,1,.1-.407.492.492,0,0,1,.713,0,.5.5,0,0,1,.153.407.578.578,0,0,1-.153.407.462.462,0,0,1-.357.153.736.736,0,0,1-.357-.1A1.017,1.017,0,0,1,178.1,51.66Z" transform="translate(-109.189 -45.905)"/></g><g transform="translate(0)"><path class="a" d="M80.992,15.4l-2.445-1.426-.153.255a2.608,2.608,0,0,1-2.241,1.324,2.8,2.8,0,0,1,0-5.6,2.451,2.451,0,0,1,2.241,1.324l.2.255L81.043,10.1l-.2-.306A5.358,5.358,0,0,0,76.2,7.3a5.48,5.48,0,1,0,0,10.95,5.522,5.522,0,0,0,4.635-2.5Z" transform="translate(-34.593 -3.582)"/><path class="a" d="M90.9,14.716h3.362l1.019-2.5h5.042l1.019,2.5H104.7L98.591.2H95.586L96.4,2.135l-5.5,12.58M97.776,5.9l1.375,3.412H96.4Z" transform="translate(-44.602 -0.098)"/><path class="a" d="M119.324,14.765h2.954V8.245h1.935V5.5h-1.935V4.222a1.054,1.054,0,0,1,1.07-1.121,1.786,1.786,0,0,1,.815.153l.306.153L125.691.758l-.357-.153A6.01,6.01,0,0,0,123.5.3a4.1,4.1,0,0,0-3.158,1.273,4.117,4.117,0,0,0-1.019,2.8V5.546H118V8.3h1.273Z" transform="translate(-57.9 -0.147)"/><path class="a" d="M43.1,0V14.618h3.209V6.265l3.107,2.292,3.107-2.292v8.353h3.209V0L49.416,4.788Z" transform="translate(-21.148)"/><path class="a" d="M137.6,7.3a5.455,5.455,0,1,0,0,10.9h0a6.142,6.142,0,0,0,4.533-2.19l-2.394-1.324a3.1,3.1,0,0,1-2.19.968,2.615,2.615,0,0,1-2.547-1.834h8v-.713A5.543,5.543,0,0,0,137.6,7.3Zm-2.547,4.075A2.354,2.354,0,0,1,137.35,9.8a2.532,2.532,0,0,1,2.394,1.579Z" transform="translate(-64.72 -3.582)"/><path class="a" d="M161.2,7.3a5.455,5.455,0,1,0,0,10.9h0a6.142,6.142,0,0,0,4.533-2.19l-2.394-1.324a3.1,3.1,0,0,1-2.19.968,2.615,2.615,0,0,1-2.547-1.834h8v-.713A5.543,5.543,0,0,0,161.2,7.3Zm-2.547,4.126a2.354,2.354,0,0,1,2.292-1.579,2.532,2.532,0,0,1,2.394,1.579Z" transform="translate(-76.3 -3.582)"/><path class="a" d="M176.451,6.3h1.222v.255h-.509V7.879h-.255V6.555H176.4V6.3Z" transform="translate(-86.555 -3.091)"/><path class="a" d="M179.3,6.3h.357l.407,1.222h0l.407-1.222h.357V7.828h-.153V6.657h0l-.407,1.171h-.2l-.509-1.171h0V7.828H179.3Z" transform="translate(-87.978 -3.091)"/><path class="a" d="M3.26,12.427V5.042l4.635,2.19V3.667L0,0V14.516l7.895,3.667V14.618Z"/><path class="a" d="M20.186,12.427V5.042L15.5,7.232V3.667L23.395,0V14.516L15.5,18.183V14.618Z" transform="translate(-7.605)"/></g></svg>