<svg xmlns="http://www.w3.org/2000/svg" width="108.705" height="19.426" viewBox="0 0 108.705 19.426"><defs><style>.a{opacity:0.65;}.b{fill-rule:evenodd;}</style></defs><g class="a" transform="translate(-1111.877 -525.402)"><g transform="translate(1111.877 525.402)"><path class="b" d="M8.2,7.038a3.305,3.305,0,0,0-.872,2.094,2.769,2.769,0,0,0,2.792,3.083c2.385,0,2.85-2.443,2.85-3.606V8.2h0a4.67,4.67,0,0,0,1.861-.756h0c0,1.163.058,2.268.058,2.792,0,1.629.116,1.8.582,1.8.523,0,.814-1.105,1.338-2.152.582-1.28,1.221-2.617,1.57-2.617.7,0-.582,4.769,1.163,4.769,1.221,0,3.024-4.886,3.781-4.886.582,0-.64,4.886.7,4.886.989,0,2.675-4.944,3.257-4.944s-.64,4.944,1.105,4.944c1.57,0,2.85-4.071,3.257-4.071.233,0,.582.523.872,1.28h0a3.592,3.592,0,0,0-.872,1.8.9.9,0,0,0,.989.931,1.744,1.744,0,0,0,1.454-1.919,3.876,3.876,0,0,0-.291-1.57h0a9.261,9.261,0,0,1,3.315-2.036A3.406,3.406,0,0,0,35.77,9.073a2.906,2.906,0,0,0,2.966,2.966c2.326,0,2.85-2.5,2.85-3.432a4.047,4.047,0,0,0-.116-.931h0c.814-.349,1.4-.872,1.629-.872.465,0,.291,1.454.291,2.966,0,1.163-.174,2.326.7,2.326.64,0,.931-1.28,1.57-2.385S46.937,7.1,47.228,7.1c.349,0,.233,2.326.233,2.792,0,.582-.116,2.385,1.047,2.385.814,0,2.268-2.21,2.268-2.5,0-.174,0-.174-.116-.174s-1.047,1.512-1.4,1.512c-.523,0-.174-1.919-.174-3.315,0-.64.058-1.978-.931-1.978-1.338,0-2.617,3.722-2.966,3.722-.407,0,.582-3.548-1.105-3.548-.64,0-1.687.931-2.734,1.4h0a2.078,2.078,0,0,0-1.8-1.163.84.84,0,0,0-.872.756,1.333,1.333,0,0,0,1.454,1.28,3.927,3.927,0,0,0,.814-.116h0a2.12,2.12,0,0,1,.116.814,1.988,1.988,0,0,1-1.8,2.094,2.043,2.043,0,0,1-1.745-2.21c0-1.978,1.221-2.326,1.221-2.675,0-.174-.116-.233-.407-.233-1.338,0-3.141,1.105-4.537,2.385h0c-.058-.058-.116-.174-.174-.233C32.28,6.165,32.8,5.758,32.454,5.758c-.407,0-2.385,5.293-3.141,5.293-.989,0,.814-5.06-1.105-5.06C26.7,5.991,25.766,10,25.184,10s.582-4.013-1.105-4.013c-1.221,0-2.966,4.769-3.722,4.769-.64,0,.582-4.711-.931-4.711-1.454,0-2.617,3.664-2.966,3.664-.291,0-.233-1.163-.233-3.257h0a7.371,7.371,0,0,0,2.036-4.711c0-.756-.407-1.4-1.105-1.4-1.4,0-2.268,2.268-2.268,4.711V6.979h0a3.515,3.515,0,0,1-1.629.756h-.349a2.082,2.082,0,0,0-1.861-1.512.893.893,0,0,0-.872.872c0,.582.523,1.221,2.152,1.221h0a2.182,2.182,0,0,1,.058.582,2.092,2.092,0,0,1-1.861,2.152c-1.047,0-1.8-1.163-1.8-2.443A3.034,3.034,0,0,1,9.829,6.282c0-.058,0-.116-.058-.116-1.105,0-2.908,1.221-4.595,2.966h0a40.7,40.7,0,0,1-.407-5.176A9.773,9.773,0,0,1,5.293.291C5.235.058,5.176,0,4.886,0,4.246,0,0,1.919,0,6.165a6.425,6.425,0,0,0,2.966,5.584h0a11.2,11.2,0,0,0-2.152,5.7c0,.989.407,1.978,1.163,1.978,1.163,0,3.432-2.5,3.432-7.561A16.108,16.108,0,0,0,5.235,9.6h0A11.455,11.455,0,0,1,8.2,7.038Zm90.442.523h0c-.233-.407-.523-.756-.931-.756a.377.377,0,0,0-.349.291c0,.291.291.523.756.523a1.794,1.794,0,0,1,.523-.058Zm-37.4,3.9c.233-.291.465-.582.7-.931h0a24.623,24.623,0,0,1-.582-4.013c0-3.083,1.338-5.235,1.338-5.7,0-.291.058-.349-.174-.349-.174,0-3.2,1.28-3.2,5.874a8.347,8.347,0,0,0,1.919,5.118Zm-.233.349a11.309,11.309,0,0,0-1.454-1.28c-.523-.349-1.861.058-3.024.233h0c-.116.7-.349,1.338-.582,1.338-.174,0-.233-.523-.407-1.163h0a6.635,6.635,0,0,1-1.221.174c-.814,0-2.675-.349-2.675-1.57,0-.7.756-.989,1.512-.989a3.127,3.127,0,0,1,2.5,1.28A3.385,3.385,0,0,0,54.9,7.852c0-.174.931-.523.989-.523.349,0,.7,1.687.7,2.85v.174h0a8.607,8.607,0,0,1,2.559-.291,6.219,6.219,0,0,1-1.105-3.781c0-4.246,4.246-6.165,4.886-6.165.291,0,.349.058.349.233A8.907,8.907,0,0,0,62.7,4.013a40.7,40.7,0,0,0,.407,5.176h0C64.793,7.445,66.6,6.223,67.7,6.223c.058,0,.058.058.058.116a2.9,2.9,0,0,0-1.105,2.326c0,1.28.814,2.443,1.861,2.443a2.092,2.092,0,0,0,1.861-2.152,1.979,1.979,0,0,0-.058-.582h0c-1.629-.058-2.152-.64-2.152-1.221a.949.949,0,0,1,.931-.872,1.967,1.967,0,0,1,1.8,1.512h.291a3,3,0,0,0,1.629-.756h0V5.118c0-2.443.814-4.711,2.268-4.711.7,0,1.105.582,1.105,1.4a7.083,7.083,0,0,1-2.036,4.711h0c0,2.094-.058,3.257.233,3.257.349,0,1.512-3.664,2.966-3.664,1.512,0,.291,4.711.931,4.711.756,0,2.559-4.769,3.722-4.769,1.687,0,.523,4.013,1.105,4.013s1.454-4.013,3.024-4.013c1.978,0,.116,5.06,1.105,5.06.756,0,2.675-5.293,3.141-5.293.349,0-.174.407,1.163,2.326.058.058.116.174.174.233h0c1.4-1.28,3.2-2.385,4.537-2.385.233,0,.407.058.407.233,0,.407-1.221.7-1.221,2.675a2.043,2.043,0,0,0,1.745,2.21,1.981,1.981,0,0,0,1.8-2.094,4.563,4.563,0,0,0-.116-.814h0a3.433,3.433,0,0,1-.814.116,1.3,1.3,0,0,1-1.454-1.28.839.839,0,0,1,.872-.756,2.078,2.078,0,0,1,1.8,1.163h0c1.105-.465,2.094-1.4,2.734-1.4,1.629,0,.7,3.548,1.105,3.548s1.687-3.722,2.966-3.722c1.047,0,.931,1.4.931,1.978,0,1.4-.349,3.315.174,3.315.349,0,1.28-1.512,1.4-1.512s.116.058.116.174c0,.291-1.512,2.5-2.326,2.5-1.163,0-1.047-1.8-1.047-2.385,0-.465.116-2.792-.233-2.792-.233,0-.931,1.512-1.57,2.617s-.931,2.385-1.57,2.385c-.872,0-.7-1.163-.7-2.326,0-1.512.174-2.966-.291-2.966-.233,0-.814.523-1.629.872h0a4.52,4.52,0,0,1,.116.931c0,.989-.523,3.432-2.85,3.432a2.906,2.906,0,0,1-2.966-2.966,3.266,3.266,0,0,1,1.4-2.617A8.251,8.251,0,0,0,91.663,8.55h0a4.025,4.025,0,0,1,.291,1.57A1.741,1.741,0,0,1,90.5,12.04a.929.929,0,0,1-.989-.931,3.391,3.391,0,0,1,.872-1.8h0c-.291-.756-.64-1.28-.872-1.28-.407,0-1.687,4.071-3.257,4.071-1.745,0-.523-4.944-1.105-4.944S82.881,12.1,81.95,12.1c-1.338,0-.116-4.886-.756-4.886-.756,0-2.559,4.886-3.781,4.886-1.687,0-.407-4.769-1.163-4.769-.407,0-.989,1.28-1.57,2.617-.523,1.047-.814,2.152-1.338,2.152s-.582-.174-.582-1.8c0-.523-.058-1.629-.058-2.792h0a4.67,4.67,0,0,1-1.861.756h0v.407c0,1.163-.465,3.606-2.85,3.606A2.769,2.769,0,0,1,65.2,9.19,3.305,3.305,0,0,1,66.072,7.1a15.961,15.961,0,0,0-3.024,2.5h0a17.488,17.488,0,0,1,.174,2.268c0,5.118-2.21,7.561-3.432,7.561-.756,0-1.163-.989-1.163-1.978a14.722,14.722,0,0,1,2.385-5.642ZM90.791,9.829h0a2.134,2.134,0,0,0-.465,1.163c0,.349.058.582.291.582.174,0,.349-.233.349-.582a4.345,4.345,0,0,0-.174-1.163ZM74.157,5.7h0a5.864,5.864,0,0,0,1.28-3.722c0-.7-.058-1.163-.407-1.163-.989,0-.872,3.606-.872,4.886ZM70.143,7.677h0c-.174-.465-.465-.756-.872-.756a.266.266,0,0,0-.291.233c0,.349.582.465,1.163.523Zm-8.085,3.315h0a9.922,9.922,0,0,0-2.326,5.758c0,.64,0,1.57.872,1.57,1.105,0,1.861-1.629,1.861-3.9-.058-1.105-.233-2.268-.407-3.432Zm-6.689-.523h0a1.966,1.966,0,0,0-1.919-1.454c-.291,0-.465.233-.465.582,0,.582.872.931,1.745.931.233,0,.407-.058.64-.058ZM40.6,7.561h-.465c-.465,0-.756-.174-.756-.523a.377.377,0,0,1,.349-.291,1.313,1.313,0,0,1,.872.814ZM32.745,9.888a3.75,3.75,0,0,1,.174,1.163c0,.349-.174.582-.349.582-.233,0-.291-.233-.291-.582a2.134,2.134,0,0,1,.465-1.163ZM16.111,5.7c0-1.28-.116-4.886.872-4.886.407,0,.407.407.407,1.163A5.988,5.988,0,0,1,16.111,5.7ZM12.1,7.677c-.582-.058-1.163-.174-1.163-.523a.266.266,0,0,1,.291-.233c.407,0,.7.349.872.756Zm-8.2,2.85c-.233.291-.465.582-.7.931h0A8.248,8.248,0,0,1,1.28,6.282C1.28,1.687,4.3.407,4.478.407c.233,0,.174.058.174.349,0,.465-1.338,2.617-1.338,5.7A24.363,24.363,0,0,0,3.9,10.527Zm.058.407a18.339,18.339,0,0,1,.407,3.432c0,2.268-.756,3.9-1.861,3.9-.872,0-.872-.931-.872-1.57a10.232,10.232,0,0,1,2.326-5.758Z"/></g></g></svg>