<svg xmlns="http://www.w3.org/2000/svg" width="95.168" height="29.941" viewBox="0 0 95.168 29.941"><defs><style>.a{opacity:0.65;}.b{font-size:8px;font-family:Poppins-BoldItalic, Poppins;font-weight:700;font-style:italic;}.c{fill:#fff;}.d{fill:#414141;}</style></defs><g class="a" transform="translate(-1358.134 -1032.859)"><g transform="translate(1358.134 1032.859)"><text class="b" transform="translate(38.168 16.672)"><tspan x="0" y="0">JANSTRADING</tspan></text><g transform="translate(0 0)"><rect width="34.26" height="29.924"/><path class="c" d="M31.324,87.964a2.64,2.64,0,0,1-1.724-.546l.58-1.161a1.493,1.493,0,0,0,.529.29,2.258,2.258,0,0,0,.888.137,1.819,1.819,0,0,0,.9-.2,1.958,1.958,0,0,0,.632-.615,4.1,4.1,0,0,0,.444-1.024c.119-.41.239-.871.358-1.417l.973-4.524h1.417l-.973,4.524c-.137.683-.307,1.3-.478,1.861a5.12,5.12,0,0,1-.717,1.434,3.066,3.066,0,0,1-1.11.922A4.038,4.038,0,0,1,31.324,87.964Z" transform="translate(-24.547 -65.431)"/><path class="c" d="M76.482,80.046H73.7l.256-1.246h7.016l-.256,1.246h-2.8l-1.639,7.7H74.861Z" transform="translate(-61.119 -65.349)"/><path class="c" d="M114.792,87.4a2.718,2.718,0,0,1-1.349-.324,3.236,3.236,0,0,1-1.007-.854,3.692,3.692,0,0,1-.615-1.212,4.618,4.618,0,0,1,.171-3.278,5.769,5.769,0,0,1,1.075-1.707,5.636,5.636,0,0,1,1.639-1.246,4.482,4.482,0,0,1,2.066-.478,3.064,3.064,0,0,1,1.878.546,2.524,2.524,0,0,1,.939,1.417l-1.263.751a1.908,1.908,0,0,0-.273-.683,1.57,1.57,0,0,0-.444-.444,2.075,2.075,0,0,0-.563-.239,2.47,2.47,0,0,0-.6-.068,2.8,2.8,0,0,0-1.4.358,3.562,3.562,0,0,0-1.075.939,4.792,4.792,0,0,0-.7,1.263,3.816,3.816,0,0,0-.239,1.349,3.877,3.877,0,0,0,.137,1.007,2.392,2.392,0,0,0,.41.836,2.037,2.037,0,0,0,.649.563,1.821,1.821,0,0,0,.871.2,3.082,3.082,0,0,0,.649-.085,2.547,2.547,0,0,0,.683-.256,3.231,3.231,0,0,0,.649-.461,3.624,3.624,0,0,0,.563-.666l1.024.666a3.769,3.769,0,0,1-.751.888,4.714,4.714,0,0,1-.99.649,6.5,6.5,0,0,1-1.092.41A3.211,3.211,0,0,1,114.792,87.4Z" transform="translate(-92.55 -64.934)"/><path class="c" d="M47.595,56.886c.222-.068-.41-.529-.41-.529a31.413,31.413,0,0,0-3.67-1.161c-.444.154.461,1.058.751,1.229A17.917,17.917,0,0,0,47.595,56.886Z" transform="translate(-35.987 -45.773)"/><path class="c" d="M57.413,20a.636.636,0,0,0-.461-.256c-.171-.017-.358-.017-.58-.017-.563,0-1.075.051-1.092.051a.173.173,0,0,0-.119.068.163.163,0,0,0-.034.119,2.144,2.144,0,0,1-.068,1.058c-.188-.307-.6-.973-1.041-1.639-1.28-1.912-1.6-2-1.758-2.031-.546-.119-4.319-.29-5.428-.341V17l-.273.017L46.266,17v.017c-1.127.051-4.9.222-5.428.341-.171.051-.5.119-1.775,2.031-.444.666-.854,1.331-1.041,1.639a2.144,2.144,0,0,1-.068-1.058.144.144,0,0,0-.034-.119.275.275,0,0,0-.119-.068c-.017,0-.546-.051-1.092-.051-.222,0-.41.017-.58.017a.606.606,0,0,0-.461.256,1.653,1.653,0,0,0-.154,1.144.18.18,0,0,0,.1.119l1.417.563a7,7,0,0,0-.922.8c-.1.137-.307.376-.2,2.731.051,1.11.137,2.185.137,2.2l.034.29.58-.051-.034-.29a24.505,24.505,0,0,1-.1-4.336l4.336,1.4a2.162,2.162,0,0,1,.222.188l.222.222a.716.716,0,0,1,.154.239v.051l-.017.017H41.35a1.855,1.855,0,0,1-.307.017h-.324c-.2,0-.427-.017-.632-.034-.427-.034-.854-.085-1.28-.137l-.632-.1c-.1-.017-.2-.051-.307-.068a2.162,2.162,0,0,1-.307-.1,2.28,2.28,0,0,0,.307.119,2.064,2.064,0,0,0,.307.085c.2.051.427.1.632.137q.64.128,1.28.2c.222.034.427.051.649.068.1,0,.222.017.324.017a2.4,2.4,0,0,0,.341-.017.254.254,0,0,0,.1-.017h.017c.017,0,.017-.017.034-.017.017-.017.034-.017.051-.034a.343.343,0,0,0,.068-.137V25.16a.979.979,0,0,0-.171-.324,2.968,2.968,0,0,0-.222-.256l-.239-.239c-.017,0-.017-.017-.034-.017h0l-4.165-1.6c.444-.393,1.212-.939,1.519-1.161a.133.133,0,0,0,.068-.068c1.092-.034,5.48-.188,8.16-.188s7.067.154,8.16.188c.017.017.034.051.068.068.324.222,1.075.768,1.519,1.161l-4.216,1.639h0c-.017,0-.017.017-.034.017a3.153,3.153,0,0,0-.239.239c-.068.085-.154.154-.222.256a.836.836,0,0,0-.171.324.144.144,0,0,0,0,.119.211.211,0,0,0,.068.137c.017.017.034.034.051.034s.017,0,.034.017h.017a.254.254,0,0,0,.1.017,2.288,2.288,0,0,0,.341.017c.1,0,.222-.017.324-.017.222-.017.427-.034.649-.068q.64-.077,1.28-.2c.2-.034.427-.085.632-.137.1-.034.2-.051.307-.085a2.28,2.28,0,0,0,.307-.119l-.307.1a1.985,1.985,0,0,1-.307.068l-.632.1c-.427.068-.854.1-1.28.137-.2.017-.427.034-.632.034h-.324a1.855,1.855,0,0,1-.307-.017h-.085a.017.017,0,0,1-.017-.017v-.051a.792.792,0,0,1,.154-.239,1.364,1.364,0,0,1,.222-.222,1.175,1.175,0,0,1,.222-.188l4.37-1.434a24.482,24.482,0,0,1-.1,4.336l-.034.29.58.051.034-.29c0-.017.1-1.093.137-2.2.1-2.356-.1-2.595-.2-2.731a7,7,0,0,0-.922-.8l1.417-.563a.18.18,0,0,0,.1-.119C57.583,21.063,57.7,20.38,57.413,20Zm-21.594.99a1.259,1.259,0,0,1,.119-.785.292.292,0,0,1,.222-.119,5.313,5.313,0,0,1,.546-.017c.358,0,.7.017.888.034a1.91,1.91,0,0,0,.171,1.178c-.119.085-.273.188-.444.324Zm10.72.017h-.171c-2.543,0-6.435.137-7.784.188a15.886,15.886,0,0,1,2.373-3.26c.427-.1,3.568-.256,5.582-.341,2.014.085,5.138.239,5.582.341a15.886,15.886,0,0,1,2.373,3.26c-1.349-.051-5.241-.171-7.784-.188h-.171Zm10.72-.017-1.519.6c-.171-.119-.324-.239-.444-.324a1.91,1.91,0,0,0,.171-1.178c.2-.017.546-.034.888-.034a5.313,5.313,0,0,1,.546.017.317.317,0,0,1,.222.119A1.116,1.116,0,0,1,57.259,20.994Z" transform="translate(-29.418 -14.098)"/><path class="c" d="M136.577,55.2a31.413,31.413,0,0,0-3.67,1.161s-.615.461-.41.529a16.43,16.43,0,0,0,3.312-.461C136.1,56.271,137.021,55.349,136.577,55.2Z" transform="translate(-109.845 -45.773)"/><path class="c" d="M70.888,55.251a.306.306,0,0,1,.119-.085,2.038,2.038,0,0,1,.273-.137c.188-.085.376-.137.529-.2.341-.119.632-.188.819-.239.2-.051.324-.085.324-.085s-.119.017-.324.068c-.2.034-.5.1-.836.188-.171.051-.358.1-.563.171a2.28,2.28,0,0,0-.307.119.8.8,0,0,0-.154.1c-.051.051-.068.1-.1.137a2.054,2.054,0,0,1-.478.461,1.621,1.621,0,0,1-.29.171,1.176,1.176,0,0,0-.137.051h-.854c-.239,0-.461-.017-.683-.017-.444-.017-.871-.034-1.212-.051-.41-.017-.734-.034-.956-.051v-.017l-.239.017-.239-.017v.017c-.2.017-.546.017-.956.051-.358.017-.768.034-1.212.051-.222,0-.461.017-.683.017h-.341a2.509,2.509,0,0,1-.358,0h-.154a.194.194,0,0,1-.137-.051,1.287,1.287,0,0,1-.29-.171,2.455,2.455,0,0,1-.478-.461c-.034-.034-.051-.085-.1-.137a.8.8,0,0,0-.154-.1c-.1-.051-.2-.085-.29-.119-.188-.068-.376-.119-.563-.171-.341-.085-.632-.154-.836-.188A3.25,3.25,0,0,1,58.7,54.5s.119.034.324.085.5.137.819.239a3.377,3.377,0,0,1,.529.2,2.038,2.038,0,0,1,.273.137.722.722,0,0,1,.119.085c.017.017.051.085.085.119a2.357,2.357,0,0,0,.478.529,1.6,1.6,0,0,0,.307.2.612.612,0,0,0,.188.068h.1l.085.017a2.521,2.521,0,0,0,.358.017c.119,0,.239.017.358.017.239,0,.461.017.683.017.444.017.871.017,1.229.034.393,0,.734.017.939.017v.017h.512v-.017c.2,0,.529-.017.939-.017.358-.017.768-.017,1.229-.034.222,0,.461-.017.683-.017.119,0,.239-.017.358-.017s.239-.017.358-.017l.085-.017h.1c.068-.017.137-.051.188-.068a1.376,1.376,0,0,0,.307-.2,2.01,2.01,0,0,0,.478-.529A.367.367,0,0,1,70.888,55.251Z" transform="translate(-48.68 -45.197)"/><rect class="d" width="34.26" height="5.309" transform="translate(0 24.633)"/><path class="c" d="M25.626,152.819l.461-2.219H26.6l-.683,2.953h-.5l-.563-2.151-.58,2.151h-.5L23.1,150.6h.512l.461,2.219.563-2.219h.427Z" transform="translate(-19.157 -124.892)"/><path class="c" d="M45.741,157.07a1.03,1.03,0,0,1-.751-.29,1.113,1.113,0,0,1-.29-.785v-.068a1.262,1.262,0,0,1,.119-.58,1.043,1.043,0,0,1,.358-.41.889.889,0,0,1,.512-.137.851.851,0,0,1,.683.29,1.157,1.157,0,0,1,.239.8v.2H45.178a.588.588,0,0,0,.188.427.541.541,0,0,0,.393.154.642.642,0,0,0,.546-.273l.273.256a.79.79,0,0,1-.358.307A1.09,1.09,0,0,1,45.741,157.07Zm-.068-1.861a.437.437,0,0,0-.324.137.683.683,0,0,0-.154.393h.939V155.7a.582.582,0,0,0-.137-.376A.425.425,0,0,0,45.673,155.21Z" transform="translate(-37.07 -128.375)"/><path class="c" d="M65.1,156.439a.243.243,0,0,0-.1-.2.957.957,0,0,0-.358-.119,2.1,2.1,0,0,1-.427-.137.576.576,0,0,1-.376-.512.623.623,0,0,1,.239-.478.977.977,0,0,1,.615-.188,1.029,1.029,0,0,1,.632.188.64.64,0,0,1,.239.512h-.5a.31.31,0,0,0-.1-.239.388.388,0,0,0-.273-.1.411.411,0,0,0-.256.068.243.243,0,0,0-.1.2.188.188,0,0,0,.1.171,1.34,1.34,0,0,0,.393.119,1.321,1.321,0,0,1,.461.154.719.719,0,0,1,.239.2.589.589,0,0,1,.085.307.575.575,0,0,1-.239.478,1.083,1.083,0,0,1-.649.188,1.039,1.039,0,0,1-.478-.1.736.736,0,0,1-.324-.273.6.6,0,0,1-.119-.358h.478a.332.332,0,0,0,.137.273.492.492,0,0,0,.324.1.457.457,0,0,0,.29-.068A.273.273,0,0,0,65.1,156.439Z" transform="translate(-52.909 -128.375)"/><path class="c" d="M77.241,157.07a1.03,1.03,0,0,1-.751-.29,1.113,1.113,0,0,1-.29-.785v-.068a1.262,1.262,0,0,1,.119-.58,1.043,1.043,0,0,1,.358-.41.889.889,0,0,1,.512-.137.851.851,0,0,1,.683.29,1.157,1.157,0,0,1,.239.8v.2H76.678a.588.588,0,0,0,.188.427.541.541,0,0,0,.393.154.642.642,0,0,0,.546-.273l.273.256a.79.79,0,0,1-.358.307A1.09,1.09,0,0,1,77.241,157.07Zm-.051-1.861a.437.437,0,0,0-.324.137.638.638,0,0,0-.154.393h.939V155.7a.582.582,0,0,0-.137-.376A.425.425,0,0,0,77.19,155.21Z" transform="translate(-63.192 -128.375)"/><path class="c" d="M90.4,152.807h-.5V149.7h.5Z" transform="translate(-74.554 -124.146)"/><path class="c" d="M96.6,152.807h-.5V149.7h.5Z" transform="translate(-79.695 -124.146)"/><path class="c" d="M107.6,155.927a1.335,1.335,0,0,1,.239-.819.761.761,0,0,1,.632-.307.716.716,0,0,1,.58.256l.034-.222h.444v3.039h-.5v-1.024a.709.709,0,0,1-.563.222.761.761,0,0,1-.632-.307A1.319,1.319,0,0,1,107.6,155.927Zm.5.034a.971.971,0,0,0,.137.529.432.432,0,0,0,.376.188.452.452,0,0,0,.427-.256v-.99a.487.487,0,0,0-.427-.239.477.477,0,0,0-.376.188A.913.913,0,0,0,108.1,155.961Z" transform="translate(-89.232 -128.375)"/><path class="c" d="M123.149,157.063a.74.74,0,0,1-.615.256.721.721,0,0,1-.546-.2.894.894,0,0,1-.188-.6V155.1h.5v1.417c0,.273.119.41.341.41a.479.479,0,0,0,.478-.256V155.1h.5v2.185h-.461Z" transform="translate(-101.008 -128.624)"/><path class="c" d="M136.383,157.2a.853.853,0,0,1-.051-.2.725.725,0,0,1-.58.239.847.847,0,0,1-.546-.188.584.584,0,0,1-.2-.461.6.6,0,0,1,.256-.529,1.316,1.316,0,0,1,.751-.188h.307v-.137a.36.36,0,0,0-.1-.273.375.375,0,0,0-.29-.1.434.434,0,0,0-.273.085.254.254,0,0,0-.1.222h-.5a.522.522,0,0,1,.119-.341.769.769,0,0,1,.324-.239,1.3,1.3,0,0,1,.461-.085.977.977,0,0,1,.615.188.685.685,0,0,1,.239.546v.99a1.2,1.2,0,0,0,.085.478v.034h-.512Zm-.546-.358a.5.5,0,0,0,.273-.068.4.4,0,0,0,.188-.188v-.41h-.273a.656.656,0,0,0-.41.1.332.332,0,0,0-.137.273.254.254,0,0,0,.1.222A.411.411,0,0,0,135.836,156.844Z" transform="translate(-111.955 -128.541)"/><path class="c" d="M149.2,152.807h-.5V149.7h.5Z" transform="translate(-123.317 -124.146)"/><path class="c" d="M154.8,150.556a.257.257,0,0,1,.068-.188.341.341,0,0,1,.41,0,.292.292,0,0,1,0,.376.341.341,0,0,1-.41,0A.257.257,0,0,1,154.8,150.556Zm.512,2.748h-.5v-2.185h.5Z" transform="translate(-128.375 -124.643)"/><path class="c" d="M160.454,152v.529h.393v.358h-.393v1.229a.307.307,0,0,0,.051.188.227.227,0,0,0,.171.051.581.581,0,0,0,.171-.017v.376a1.16,1.16,0,0,1-.324.051c-.376,0-.563-.2-.563-.632v-1.246H159.6v-.358h.358V152Z" transform="translate(-132.356 -126.053)"/><path class="c" d="M168.607,156.585l.444-1.485h.529l-.871,2.526a.7.7,0,0,1-.683.546,1.339,1.339,0,0,1-.239-.034v-.376h.085a.4.4,0,0,0,.273-.068.434.434,0,0,0,.154-.222l.068-.188L167.6,155.1h.529Z" transform="translate(-138.99 -128.624)"/></g></g></g></svg>