<svg xmlns="http://www.w3.org/2000/svg" width="83.457" height="31.807" viewBox="0 0 83.457 31.807"><defs><style>.a{fill:#585858;fill-rule:evenodd;}</style></defs><path class="a" d="M31.3,20.38h-.855c-.57,0-.807-.38-.807-.9V15.633h1.709V14.541H29.634V12.5H28.4v6.931c0,1.472.712,2.089,2.041,2.089H31.3V20.38Z" transform="translate(-14.918 -6.566)"/><path class="a" d="M9.8,17.4v.047c0,2.469,2.041,3.371,3.94,3.371,1.851,0,3.7-.9,3.7-2.848,0-1.9-1.567-2.421-3.038-2.753l-.522-.095c-1.329-.285-2.469-.522-2.469-1.519,0-1.377,1.424-1.567,2.041-1.567a2.011,2.011,0,0,1,2.279,1.9v.047h1.282v-.047C16.921,11.992,15.639,10.9,13.5,10.9c-1.709,0-3.465.855-3.465,2.8,0,1.709,1.424,2.184,3.038,2.516l.332.047c1.377.285,2.658.57,2.658,1.709,0,1.424-1.472,1.662-2.326,1.662a3.273,3.273,0,0,1-1.851-.522,1.992,1.992,0,0,1-.807-1.709v-.047H9.8Z" transform="translate(-5.148 -5.725)"/><path class="a" d="M42.809,22.529l-.047.047a.927.927,0,0,1-.332.047c-.285,0-.285-.142-.285-.712V18.4c0-1.282-.855-1.9-2.611-1.9-1.044,0-2.848.285-2.943,2.326v.047h1.234v-.047c.047-.855.57-1.234,1.662-1.234,1,0,1.472.332,1.472,1.092,0,.617-.617.712-1.472.807a5.243,5.243,0,0,0-.76.142c-1.187.237-2.326.57-2.326,2.136,0,1.234.855,1.946,2.279,1.946a3.118,3.118,0,0,0,2.374-1,.933.933,0,0,0,1,1,1.358,1.358,0,0,0,.807-.19H42.9v-1Zm-3.94.047c-.38,0-1.282-.095-1.282-.949,0-.807.665-1.044,1.329-1.187.19-.047.427-.047.617-.095a3.911,3.911,0,0,0,1.377-.332h0v1.044c0,.617-.57,1.519-2.041,1.519Z" transform="translate(-19.12 -8.667)"/><path class="a" d="M52.2,16.642v6.884h1.234V19.633a1.862,1.862,0,0,1,1.946-2.089,1.246,1.246,0,0,1,1.329,1.329v4.652h1.234v-4.51c0-1.709-.807-2.516-2.374-2.516a2.38,2.38,0,0,0-2.184,1.139v-1Z" transform="translate(-27.419 -8.667)"/><path class="a" d="M71.964,11.4v3.418a2.776,2.776,0,0,0-2.184-1c-1.9,0-3.181,1.424-3.181,3.608a4.131,4.131,0,0,0,.807,2.564,2.91,2.91,0,0,0,2.374,1.092,2.4,2.4,0,0,0,2.136-1v.807h1.234V11.4H71.964Zm-1.994,8.545c-1.424,0-2.041-1.234-2.041-2.469,0-.76.19-2.564,1.994-2.564,1.946,0,2.089,1.946,2.089,2.516,0,1.234-.57,2.516-2.041,2.516Z" transform="translate(-34.983 -5.988)"/><path class="a" d="M89.556,22.529l-.047.047a.927.927,0,0,1-.332.047c-.285,0-.332-.142-.332-.712V18.4c0-1.282-.855-1.9-2.611-1.9-1.044,0-2.848.285-2.943,2.326v.047h1.234v-.047c.047-.855.57-1.234,1.662-1.234,1,0,1.472.332,1.472,1.092,0,.617-.617.712-1.472.807a4.275,4.275,0,0,0-.76.142c-1.187.237-2.326.57-2.326,2.136,0,1.234.855,1.946,2.279,1.946a3.118,3.118,0,0,0,2.374-1,.933.933,0,0,0,1,1,1.626,1.626,0,0,0,.855-.19h.047v-1Zm-3.94.095c-.38,0-1.282-.095-1.282-.949,0-.807.665-1.044,1.329-1.187.19-.047.427-.047.617-.095a3.409,3.409,0,0,0,1.329-.332h0V21.1c.047.617-.522,1.519-1.994,1.519Z" transform="translate(-43.65 -8.667)"/><path class="a" d="M102.655,16.5h-.047a2.469,2.469,0,0,0-2.469,1.472V16.639H99v6.884h1.234V20.437c0-1.851.76-2.706,2.421-2.706h.047V16.5Z" transform="translate(-52.002 -8.663)"/><path class="a" d="M112.417,11.4v3.418a2.712,2.712,0,0,0-2.184-1c-1.9,0-3.133,1.424-3.133,3.608a4.131,4.131,0,0,0,.807,2.564,2.91,2.91,0,0,0,2.374,1.092,2.4,2.4,0,0,0,2.136-1v.855h1.234V11.447h-1.234Zm-1.994,8.545c-1.424,0-2.041-1.234-2.041-2.469,0-.76.19-2.564,1.994-2.564,1.946,0,2.089,1.946,2.089,2.516,0,1.234-.57,2.516-2.041,2.516Z" transform="translate(-56.257 -5.988)"/><path class="a" d="M7.168,44.824h0A2.634,2.634,0,0,1,4.51,47.53a2.848,2.848,0,0,1-2.421-1.139,4.733,4.733,0,0,1-.76-2.753,4.475,4.475,0,0,1,.76-2.611,2.82,2.82,0,0,1,2.374-1.139,2.377,2.377,0,0,1,2.564,1.946v.047H8.355v-.047a3.63,3.63,0,0,0-1.329-2.326A4.176,4.176,0,0,0,4.415,38.7a4.309,4.309,0,0,0-3.371,1.472A6.439,6.439,0,0,0,0,43.732c0,3.038,1.662,4.937,4.415,4.937a4.007,4.007,0,0,0,2.848-1,4.161,4.161,0,0,0,1.234-2.8v-.047Z" transform="translate(0 -20.328)"/><path class="a" d="M20.4,39.147v9.495h1.234V44.749a1.862,1.862,0,0,1,1.946-2.089A1.246,1.246,0,0,1,24.91,43.99v4.652h1.234V44.085c0-1.709-.76-2.516-2.374-2.516a2.484,2.484,0,0,0-2.136,1.044V39.1H20.4Z" transform="translate(-10.716 -20.538)"/><path class="a" d="M36.224,46.726v-.047c.047-.854.57-1.234,1.662-1.234,1,0,1.472.332,1.472,1.092,0,.617-.617.712-1.472.855a5.241,5.241,0,0,0-.76.142c-1.187.237-2.326.57-2.326,2.136,0,1.234.854,1.946,2.279,1.946a3.118,3.118,0,0,0,2.374-1,.933.933,0,0,0,1,1,1.358,1.358,0,0,0,.807-.19H41.3v-.949h-.047a.927.927,0,0,1-.332.047c-.285,0-.285-.142-.285-.712V46.3c0-1.282-.855-1.9-2.611-1.9-1.044,0-2.848.285-2.943,2.326v.047h1.139Zm1.092,3.8c-.38,0-1.282-.095-1.282-.949,0-.807.665-1.044,1.329-1.187.19-.047.427-.047.617-.095a3.665,3.665,0,0,0,1.377-.332h0V49c0,.57-.57,1.519-2.041,1.519Z" transform="translate(-18.28 -23.322)"/><path class="a" d="M113.651,48.695V39.2h-1.234v3.418a2.712,2.712,0,0,0-2.184-1c-1.9,0-3.133,1.424-3.133,3.608a4.132,4.132,0,0,0,.807,2.564,2.91,2.91,0,0,0,2.374,1.092,2.4,2.4,0,0,0,2.136-1v.855h1.234Zm-3.228-.9c-1.424,0-2.041-1.234-2.041-2.469,0-.76.19-2.564,1.994-2.564,1.946,0,2.089,1.946,2.089,2.516,0,1.187-.57,2.516-2.041,2.516Z" transform="translate(-56.257 -20.591)"/><path class="a" d="M72.98,49.29a1.582,1.582,0,0,1-1.709,1.234,2.078,2.078,0,0,1-1.519-.57,2.193,2.193,0,0,1-.57-1.567h5.08V48.34a4.323,4.323,0,0,0-1-3.086,2.754,2.754,0,0,0-2.136-.854A3.3,3.3,0,0,0,67.9,48.008c.095,2.326,1.282,3.608,3.323,3.608a2.806,2.806,0,0,0,2.943-2.279H72.98Zm-1.851-3.845a1.917,1.917,0,0,1,1.9,1.8h-3.8a1.887,1.887,0,0,1,1.9-1.8Z" transform="translate(-35.666 -23.322)"/><path class="a" d="M96.98,49.237a1.591,1.591,0,0,1-1.709,1.187,2.078,2.078,0,0,1-1.519-.57,2.193,2.193,0,0,1-.57-1.567h5.08V48.24a4.323,4.323,0,0,0-1-3.086,2.754,2.754,0,0,0-2.136-.855A3.305,3.305,0,0,0,91.9,47.908c.048,2.326,1.282,3.608,3.323,3.608a2.766,2.766,0,0,0,2.943-2.279Zm-1.9-3.845a1.917,1.917,0,0,1,1.9,1.8h-3.8a1.887,1.887,0,0,1,1.9-1.8Z" transform="translate(-48.273 -23.27)"/><path class="a" d="M51.887,51.37V48.284c0-1.851.76-2.706,2.421-2.706h.047V44.3h-.047a2.469,2.469,0,0,0-2.469,1.472V44.439H50.7V51.37Z" transform="translate(-26.631 -23.266)"/><path class="a" d="M85.187,51.37V48.284c0-1.851.76-2.706,2.421-2.706h.047V44.3h-.047a2.469,2.469,0,0,0-2.469,1.472V44.439H84v6.884h1.187Z" transform="translate(-44.123 -23.266)"/><path class="a" d="M63.5,48.233h-.855c-.57,0-.807-.38-.807-.9v-3.8h1.709V42.441H61.834V40.4H60.6v6.931a1.825,1.825,0,0,0,2.041,2.089H63.5V48.233Z" transform="translate(-31.832 -21.221)"/><path class="a" d="M138.519,58.869a4.891,4.891,0,0,1-2.374.807,3.9,3.9,0,0,1-3.845-3.7l3.988-2.374,6.219,2.8-3.988,2.469Z" transform="translate(-69.494 -28.155)"/><path class="a" d="M144.254,37.059l-2.991-1.329c-1.329-.57-2.564-1.092-2.564-2.564a2.239,2.239,0,0,1,.57-1.567l6.266,2.753-1.567.9c-.427.285-.712.475-.712.807.047.427.475.76,1,1Z" transform="translate(-72.856 -16.599)"/><path class="a" d="M147.355,6.741l-3.038,1.851a1,1,0,0,0-.617.855c0,.475.712.807,1.329,1.092l-3.8-1.662C140.092,8.4,139,7.833,139,6.456a2.307,2.307,0,0,1,.427-1.424L147.593,0a3.765,3.765,0,0,1,1.946,3.228,3.874,3.874,0,0,1-2.184,3.513Z" transform="translate(-73.013)"/><path class="a" d="M162.373,19.289l-.76.427-6.314-2.8,7.311-4.415a3.825,3.825,0,0,1-.237,6.789Z" transform="translate(-81.575 -6.566)"/><path class="a" d="M157.424,38l3.7,1.614c1.377.617,1.8,1.377,1.8,2.279a1.978,1.978,0,0,1-.712,1.424L156,40.564l1.044-.617c.9-.475,1.187-.807,1.187-1.139.047-.285-.19-.522-.807-.807Z" transform="translate(-81.943 -19.96)"/><path class="a" d="M152.2,48.51a25.851,25.851,0,0,0-5.317-2.991l-9.495-4.178C135.014,40.3,133.4,38.873,133.4,36.5a4.784,4.784,0,0,1,2.564-4.367l.522-.332a1.976,1.976,0,0,0-.57,1.567c0,1.472,1.234,1.946,2.564,2.564l11.061,4.89c1.9.807,3.655,2.231,3.655,4.652a4.743,4.743,0,0,1-1,3.038Z" transform="translate(-70.072 -16.704)"/><path class="a" d="M151.37,28.545l-.712.427a1.978,1.978,0,0,0,.712-1.424c0-.9-.427-1.662-1.8-2.279l-11.821-5.222C135.372,19,133.9,17.626,133.9,15.252a5.175,5.175,0,0,1,2.8-4.652,2.307,2.307,0,0,0-.427,1.424c0,1.377,1.139,1.9,2.231,2.421l11.488,5.08c2.089.9,3.8,2.326,3.8,4.89a4.732,4.732,0,0,1-2.421,4.13Z" transform="translate(-70.334 -5.568)"/></svg>