<svg xmlns="http://www.w3.org/2000/svg" width="36.002" height="31.745" viewBox="0 0 36.002 31.745"><defs><style>.a{fill:#bcff00;}</style></defs><path class="a" d="M14.463,6.3a1.731,1.731,0,0,0,.871-2.323L13.912.989A1.736,1.736,0,0,0,11.646.147,20.009,20.009,0,0,0,5.373,4.213a15.175,15.175,0,0,0-4.211,6.651A36.476,36.476,0,0,0,0,21.086V30a1.748,1.748,0,0,0,1.743,1.743H13.156A1.748,1.748,0,0,0,14.9,30V18.589a1.748,1.748,0,0,0-1.743-1.743H7.7A12.246,12.246,0,0,1,9.729,9.788,11.039,11.039,0,0,1,14.463,6.3Z" transform="translate(0 0)"/><path class="a" d="M14.434,6.274a1.731,1.731,0,0,0,.871-2.323L13.883.989A1.736,1.736,0,0,0,11.617.146,21.038,21.038,0,0,0,5.373,4.183a15.5,15.5,0,0,0-4.241,6.68A35.986,35.986,0,0,0,0,21.057v8.916a1.748,1.748,0,0,0,1.743,1.743H13.156A1.748,1.748,0,0,0,14.9,29.974V18.56a1.748,1.748,0,0,0-1.743-1.743H7.667A12.248,12.248,0,0,1,9.7,9.759,11.037,11.037,0,0,1,14.434,6.274Z" transform="translate(20.533 0.029)"/></svg>