<svg xmlns="http://www.w3.org/2000/svg" width="30.747" height="28.818" viewBox="0 0 30.747 28.818"><defs><style>.a{fill:#6fa1db;}</style></defs><path class="a" d="M286.893,288.52h-4.824a.9.9,0,0,0-.9.9v4.865a.9.9,0,0,0,.9.9h4.824a.9.9,0,0,0,.9-.9v-4.865A.9.9,0,0,0,286.893,288.52Zm-.9,4.865H282.97v-3.064h3.023Zm0,0" transform="translate(-264.283 -271.193)"/><path class="a" d="M30.713,7.408,29.446,2.973A4.282,4.282,0,0,0,25.505,0H5.243A4.282,4.282,0,0,0,1.3,2.973L.035,7.408A.9.9,0,0,0,0,7.655v2.894a3.8,3.8,0,0,0,2.412,3.534V25.5a3.317,3.317,0,0,0,3.313,3.313h19.3A3.317,3.317,0,0,0,28.336,25.5V14.083a3.8,3.8,0,0,0,2.412-3.534V7.655a.9.9,0,0,0-.035-.247ZM3.035,3.468A2.5,2.5,0,0,1,5.243,1.8H25.505a2.5,2.5,0,0,1,2.209,1.666l.939,3.286H2.1ZM7.591,8.556h3.988v1.993a1.994,1.994,0,1,1-3.988,0Zm5.789,0h3.987v1.993a1.994,1.994,0,1,1-3.987,0Zm5.789,0h3.987v1.993a1.994,1.994,0,1,1-3.987,0ZM1.8,10.549V8.556H5.79v1.993a1.994,1.994,0,1,1-3.987,0ZM9.039,27.016V21.581h3.023v5.435Zm15.984,0H13.863V20.681a.9.9,0,0,0-.9-.9H8.138a.9.9,0,0,0-.9.9v6.336H5.726A1.513,1.513,0,0,1,4.214,25.5V14.322A3.791,3.791,0,0,0,6.69,13a3.788,3.788,0,0,0,5.789,0,3.788,3.788,0,0,0,5.789,0,3.788,3.788,0,0,0,5.789,0,3.792,3.792,0,0,0,2.476,1.321V25.5a1.513,1.513,0,0,1-1.511,1.511Zm1.93-14.473a2,2,0,0,1-1.994-1.994V8.556h3.987V10.55A2,2,0,0,1,26.952,12.543Zm0,0" transform="translate(0 0)"/></svg>